# xmcd
#
# Track frame offsets: 
#        150
#        23080
#        40757
#        61571
#        85369
#        106363
#        122651
#        141847
#        159908
#        175812
#        200544
#        222579
#
# Disc length: 3194 seconds
#
# Revision: 1
# Processed by: cddbd v1.5.2PL0 Copyright (c) Steve Scherf et al.
# Submitted via: ExactAudioCopy v1.0b4
#
DISCID=9e0c780c
DTITLE=Dana Gillespie - Back To The Blues
DYEAR=1999
DGENRE=Blues
TTITLE0=Who's Got The Blues To Blame
TTITLE1=Too Blue To Boogie?
TTITLE2=Blue Night
TTITLE3=Baby Blue
TTITLE4=Blue Water
TTITLE5=Back To The Blues
TTITLE6=Travelling Man Blues
TTITLE7=Guardian Blue Angel
TTITLE8=The Sky Will Still Be Blue
TTITLE9=It Makes Me Blue
TTITLE10=Turning Over A Blue Leaf
TTITLE11=Queen Of The Blues
EXTD=
EXTT0=
EXTT1=
EXTT2=
EXTT3=
EXTT4=
EXTT5=
EXTT6=
EXTT7=
EXTT8=
EXTT9=
EXTT10=
EXTT11=
PLAYORDER=
